<?xml version="1.0" standalone="no"?><!DOCTYPE svg PUBLIC "-//W3C//DTD SVG 1.1//EN" "http://www.w3.org/Graphics/SVG/1.1/DTD/svg11.dtd"><svg t="1727358564956" class="icon" viewBox="0 0 1024 1024" version="1.1" xmlns="http://www.w3.org/2000/svg" p-id="2480" xmlns:xlink="http://www.w3.org/1999/xlink" width="200" height="200"><path d="M1024 960.032a64 64 0 0 1-64 64H64a64 64 0 0 1-64-64v-896a64 64 0 0 1 64-64h896a64 64 0 0 1 64 64v896z" fill="#13227a" p-id="2481" data-spm-anchor-id="a313x.search_index.0.i11.71943a81hoQKG1" class=""></path><path d="M0 832.032h1024v32H0zM0 608.032h1024v32H0zM0 384.032h1024v32H0zM0 160.032h1024v32H0z" fill="#FFFFFF" p-id="2482"></path><path d="M800 256.064h-256a32 32 0 1 0 0 64h179.296l-276.672 274.72-169.376-169.376a31.968 31.968 0 0 0-45.248 0L0 657.408v90.496l254.624-254.624 169.28 169.28 0.064 0.096a31.936 31.936 0 0 0 45.28 0L768 365.856v178.208a32 32 0 1 0 64 0v-256a32 32 0 0 0-32-32z" fill="#f4ea2a" p-id="2483" data-spm-anchor-id="a313x.search_index.0.i12.71943a81hoQKG1" class="selected"></path><path d="M544 352.064h147.072l32.224-32H544a31.52 31.52 0 0 1-27.104-16 30.88 30.88 0 0 0-4.896 16 32 32 0 0 0 32 32zM768 365.856l-298.752 296.8a31.904 31.904 0 0 1-45.28 0l-0.032-0.064-169.312-169.312L0 747.904v32l254.624-254.624 169.28 169.28 0.064 0.096a31.936 31.936 0 0 0 45.28 0L768 397.856v-32zM800 576.064a32 32 0 0 1-32-32v32a32 32 0 1 0 64 0v-32a32 32 0 0 1-32 32z" fill="" p-id="2484"></path></svg>